G04 Layer_Color=2752767*
%FSLAX25Y25*%
%MOIN*%
G70*
G01*
G75*
%ADD14C,0.00500*%
D14*
X40000Y18732D02*
Y22732D01*
X44000D01*
Y18732D01*
X40000D01*
X19000D02*
Y22732D01*
X23000D01*
Y18732D01*
X19000D01*
X38000Y94732D02*
Y98732D01*
X42000D01*
Y94732D01*
X38000D01*
X48000D02*
Y98732D01*
X52000D01*
Y94732D01*
X48000D01*
X63000Y104732D02*
Y108732D01*
X67000D01*
Y104732D01*
X63000D01*
X16000Y124732D02*
Y128732D01*
X20000D01*
Y124732D01*
X16000D01*
X31000Y115732D02*
Y119732D01*
X35000D01*
Y115732D01*
X31000D01*
X41000Y108232D02*
Y112232D01*
X45000D01*
Y108232D01*
X41000D01*
X28000Y94732D02*
Y98732D01*
X32000D01*
Y94732D01*
X28000D01*
X18000D02*
Y98732D01*
X22000D01*
Y94732D01*
X18000D01*
X58000Y4732D02*
Y8732D01*
X62000D01*
Y4732D01*
X58000D01*
X48000D02*
Y8732D01*
X52000D01*
Y4732D01*
X48000D01*
X38000D02*
Y8732D01*
X42000D01*
Y4732D01*
X38000D01*
X28000D02*
Y8732D01*
X32000D01*
Y4732D01*
X28000D01*
X18000D02*
Y8732D01*
X22000D01*
Y4732D01*
X18000D01*
X8000D02*
Y8732D01*
X12000D01*
Y4732D01*
X8000D01*
X63000Y24732D02*
Y28732D01*
X67000D01*
Y24732D01*
X63000D01*
Y34732D02*
Y38732D01*
X67000D01*
Y34732D01*
X63000D01*
Y44732D02*
Y48732D01*
X67000D01*
Y44732D01*
X63000D01*
Y54732D02*
Y58732D01*
X67000D01*
Y54732D01*
X63000D01*
Y64732D02*
Y68732D01*
X67000D01*
Y64732D01*
X63000D01*
Y74732D02*
Y78732D01*
X67000D01*
Y74732D01*
X63000D01*
Y84732D02*
Y88732D01*
X67000D01*
Y84732D01*
X63000D01*
Y94732D02*
Y98732D01*
X67000D01*
Y94732D01*
X63000D01*
Y114732D02*
Y118732D01*
X67000D01*
Y114732D01*
X63000D01*
Y124732D02*
Y128732D01*
X67000D01*
Y124732D01*
X63000D01*
X3000D02*
Y128732D01*
X7000D01*
Y124732D01*
X3000D01*
Y114732D02*
Y118732D01*
X7000D01*
Y114732D01*
X3000D01*
Y104732D02*
Y108732D01*
X7000D01*
Y104732D01*
X3000D01*
Y94732D02*
Y98732D01*
X7000D01*
Y94732D01*
X3000D01*
Y84732D02*
Y88732D01*
X7000D01*
Y84732D01*
X3000D01*
Y74732D02*
Y78732D01*
X7000D01*
Y74732D01*
X3000D01*
Y64732D02*
Y68732D01*
X7000D01*
Y64732D01*
X3000D01*
Y54732D02*
Y58732D01*
X7000D01*
Y54732D01*
X3000D01*
Y44732D02*
Y48732D01*
X7000D01*
Y44732D01*
X3000D01*
Y34732D02*
Y38732D01*
X7000D01*
Y34732D01*
X3000D01*
Y24732D02*
Y28732D01*
X7000D01*
Y24732D01*
X3000D01*
X63000Y14732D02*
Y18732D01*
X67000D01*
Y14732D01*
X63000D01*
X3000D02*
Y18732D01*
X7000D01*
Y14732D01*
X3000D01*
M02*
