G04 Layer_Physical_Order=1*
G04 Layer_Color=255*
%FSLAX25Y25*%
%MOIN*%
G70*
G01*
G75*
%ADD10R,0.03543X0.05118*%
%ADD11C,0.02000*%
%ADD12C,0.07400*%
D10*
X57331Y123000D02*
D03*
X48669D02*
D03*
X30669Y130000D02*
D03*
X39331D02*
D03*
D11*
X57331Y123000D02*
Y126669D01*
X54000Y130000D02*
X57331Y126669D01*
X39331Y130000D02*
X54000D01*
X29500Y124732D02*
X36768D01*
X38500Y123000D01*
X48669D01*
Y118563D02*
Y123000D01*
X57331Y114402D02*
Y123000D01*
Y114402D02*
X65000Y106732D01*
X48669Y118563D02*
X59000Y108232D01*
Y102732D02*
Y108232D01*
X26000Y121232D02*
X29500Y124732D01*
X59000Y102732D02*
X65000Y96732D01*
X45000Y117732D02*
X56000Y106732D01*
Y34732D02*
Y106732D01*
X42000Y20732D02*
X56000Y34732D01*
X30000Y18732D02*
Y86732D01*
X20000Y8732D02*
X30000Y18732D01*
X35000Y13732D02*
Y81732D01*
X30000Y8732D02*
X35000Y13732D01*
X30000Y6732D02*
Y8732D01*
X35000Y81732D02*
X50000Y96732D01*
X30000Y86732D02*
X40000Y96732D01*
X21000Y19732D02*
Y20732D01*
X10000Y8732D02*
X21000Y19732D01*
X20000Y6732D02*
Y8732D01*
X40000Y96732D02*
Y98232D01*
X43000Y110232D02*
X50000Y103232D01*
Y96732D02*
Y103232D01*
X21331Y130063D02*
X31000D01*
X18000Y126732D02*
X21331Y130063D01*
X33000Y117732D02*
X45000D01*
X26000Y112232D02*
Y121232D01*
Y112232D02*
X40000Y98232D01*
X5000Y86732D02*
X9700D01*
X13000Y90032D02*
Y101732D01*
X9700Y86732D02*
X13000Y90032D01*
X10000Y6732D02*
Y8732D01*
X5000Y76732D02*
X14000D01*
X20000Y82732D01*
Y96732D01*
X13000Y101732D02*
X16000Y104732D01*
X25000D01*
X30000Y99732D01*
Y96732D02*
Y99732D01*
D12*
X42000Y20732D02*
D03*
X21000D02*
D03*
X40000Y96732D02*
D03*
X50000D02*
D03*
X65000Y106732D02*
D03*
X18000Y126732D02*
D03*
X33000Y117732D02*
D03*
X43000Y110232D02*
D03*
X30000Y96732D02*
D03*
X20000D02*
D03*
X60000Y6732D02*
D03*
X50000D02*
D03*
X40000D02*
D03*
X30000D02*
D03*
X20000D02*
D03*
X10000D02*
D03*
X65000Y26732D02*
D03*
Y36732D02*
D03*
Y46732D02*
D03*
Y56732D02*
D03*
Y66732D02*
D03*
Y76732D02*
D03*
Y86732D02*
D03*
Y96732D02*
D03*
Y116732D02*
D03*
Y126732D02*
D03*
X5000D02*
D03*
Y116732D02*
D03*
Y106732D02*
D03*
Y96732D02*
D03*
Y86732D02*
D03*
Y76732D02*
D03*
Y66732D02*
D03*
Y56732D02*
D03*
Y46732D02*
D03*
Y36732D02*
D03*
Y26732D02*
D03*
X65000Y16732D02*
D03*
X5000D02*
D03*
M02*
