G04 Layer_Physical_Order=2*
G04 Layer_Color=16711680*
%FSLAX25Y25*%
%MOIN*%
G70*
G01*
G75*
%ADD11C,0.02000*%
%ADD12C,0.07400*%
D11*
X21000Y20732D02*
X42000D01*
X17000Y13732D02*
X33000D01*
X13000Y17732D02*
X17000Y13732D01*
X13000Y17732D02*
Y111732D01*
X33000Y13732D02*
X40000Y6732D01*
X56000Y24232D02*
Y100732D01*
X53000Y103732D02*
X56000Y100732D01*
X28000Y103732D02*
X53000D01*
X18000Y126732D02*
X27000Y117732D01*
X33000D01*
X5000Y126732D02*
X28000Y103732D01*
X8000Y116732D02*
X13000Y111732D01*
X5000Y116732D02*
X8000D01*
X50500D02*
X65000D01*
X44000Y110232D02*
X50500Y116732D01*
X43000Y110232D02*
X44000D01*
X50000Y18232D02*
X56000Y24232D01*
X50000Y6732D02*
Y18232D01*
D12*
X42000Y20732D02*
D03*
X21000D02*
D03*
X40000Y96732D02*
D03*
X50000D02*
D03*
X65000Y106732D02*
D03*
X18000Y126732D02*
D03*
X33000Y117732D02*
D03*
X43000Y110232D02*
D03*
X30000Y96732D02*
D03*
X20000D02*
D03*
X60000Y6732D02*
D03*
X50000D02*
D03*
X40000D02*
D03*
X30000D02*
D03*
X20000D02*
D03*
X10000D02*
D03*
X65000Y26732D02*
D03*
Y36732D02*
D03*
Y46732D02*
D03*
Y56732D02*
D03*
Y66732D02*
D03*
Y76732D02*
D03*
Y86732D02*
D03*
Y96732D02*
D03*
Y116732D02*
D03*
Y126732D02*
D03*
X5000D02*
D03*
Y116732D02*
D03*
Y106732D02*
D03*
Y96732D02*
D03*
Y86732D02*
D03*
Y76732D02*
D03*
Y66732D02*
D03*
Y56732D02*
D03*
Y46732D02*
D03*
Y36732D02*
D03*
Y26732D02*
D03*
X65000Y16732D02*
D03*
X5000D02*
D03*
M02*
