M48
;Layer_Color=9474304
;FILE_FORMAT=2:5
INCH,LZ
;TYPE=PLATED
T1F00S00C0.04000
%
T01
X001Y0006732
X002
X003
X004
X005
X006
X0065Y0016732
Y0026732
Y0036732
Y0046732
Y0056732
X0042Y0020732
X0021
X0005Y0016732
Y0026732
Y0036732
Y0046732
Y0056732
Y0066732
Y0076732
Y0086732
Y0096732
Y0106732
Y0116732
Y0126732
X0018
X0033Y0117732
X0043Y0110232
X004Y0096732
X005
X0065
Y0106732
Y0116732
Y0126732
Y0086732
Y0076732
Y0066732
X003Y0096732
X002
M30
