<?xml version="1.0" standalone="no"?>
<!DOCTYPE svg PUBLIC "-//W3C//DTD SVG 20010904//EN"
 "http://www.w3.org/TR/2001/REC-SVG-20010904/DTD/svg10.dtd">
<svg version="1.0" xmlns="http://www.w3.org/2000/svg"
 width="605.000000pt" height="605.000000pt" viewBox="0 0 605.000000 605.000000"
 preserveAspectRatio="xMidYMid meet">
<metadata>
Created by potrace 1.11, written by Peter Selinger 2001-2013
</metadata>
<g transform="translate(0.000000,605.000000) scale(0.100000,-0.100000)"
fill="#000000" stroke="none">
<path d="M2793 5707 c-1 -188 -3 -934 -4 -1657 -1 -723 -4 -1323 -7 -1332 -2
-11 -14 -18 -27 -18 -45 0 -284 -99 -293 -122 -2 -4 -10 -8 -18 -8 -8 0 -14
-4 -14 -10 0 -5 -7 -10 -15 -10 -8 0 -15 -4 -15 -8 0 -4 -14 -16 -31 -26 -42
-25 -187 -172 -224 -226 -16 -25 -33 -47 -36 -50 -20 -15 -122 -243 -135 -301
-2 -11 -6 -29 -10 -41 -22 -92 -31 -179 -28 -285 1 -54 5 -105 8 -114 4 -9 6
-20 5 -25 -8 -31 64 -268 88 -292 7 -7 13 -18 13 -24 0 -27 119 -187 202 -273
51 -52 96 -95 100 -95 4 0 19 -10 32 -21 29 -25 39 -32 134 -81 109 -58 246
-99 383 -117 4 -1 9 -10 12 -21 3 -13 11 -18 20 -14 8 3 18 1 21 -4 10 -17 -5
-41 -27 -44 -14 -2 -22 -10 -22 -23 -1 -24 13 -55 23 -54 23 4 30 -4 27 -29
-6 -45 9 -59 70 -61 17 -1 17 -3 5 -11 -12 -7 -15 -34 -16 -120 l-2 -111 27 3
26 3 -2 118 c-2 99 0 117 12 117 18 0 37 43 29 65 -4 9 3 19 20 26 22 10 26
19 26 51 0 22 -4 37 -9 34 -13 -8 -45 19 -37 32 4 6 14 8 22 5 10 -4 17 2 21
16 3 11 8 22 12 22 3 1 15 3 26 5 152 26 319 92 445 177 73 49 168 131 175
150 4 9 11 15 16 12 5 -4 9 -2 9 2 0 5 18 29 40 53 22 25 40 49 40 53 0 4 5
13 10 20 38 45 100 159 100 184 0 8 6 24 14 36 15 24 51 157 61 227 14 94 7
284 -13 385 -21 99 -111 321 -141 345 -3 3 -13 17 -21 31 -23 41 -61 89 -107
136 -24 24 -43 48 -43 53 0 6 -4 10 -9 10 -6 0 -25 14 -43 30 -53 49 -140 105
-224 146 -44 21 -81 38 -84 39 -3 1 -25 8 -50 15 -25 7 -47 14 -50 14 -3 1
-11 5 -17 9 -7 5 -17 6 -21 3 -4 -2 -14 -1 -21 3 -11 7 -13 64 -12 277 1 148
2 276 2 284 -1 36 7 2283 9 2550 0 102 1 195 0 208 l0 22 -227 0 -228 0 -2
-343z"/>
</g>
</svg>
